<?xml version="1.0" encoding="UTF-8" standalone="no"?>
<!-- Created with Inkscape (http://www.inkscape.org/) -->

<svg
   width="190mm"
   height="190mm"
   viewBox="0 0 190 190"
   version="1.1"
   id="svg5"
   inkscape:version="1.1.2 (0a00cf5339, 2022-02-04)"
   sodipodi:docname="DebitLlamaLogoOnly.svg"
   xmlns:inkscape="http://www.inkscape.org/namespaces/inkscape"
   xmlns:sodipodi="http://sodipodi.sourceforge.net/DTD/sodipodi-0.dtd"
   xmlns="http://www.w3.org/2000/svg"
   xmlns:svg="http://www.w3.org/2000/svg">
  <sodipodi:namedview
     id="namedview7"
     pagecolor="#ffffff"
     bordercolor="#666666"
     borderopacity="1.0"
     inkscape:pageshadow="2"
     inkscape:pageopacity="0.0"
     inkscape:pagecheckerboard="0"
     inkscape:document-units="mm"
     showgrid="false"
     inkscape:zoom="1"
     inkscape:cx="252.5"
     inkscape:cy="550"
     inkscape:window-width="3440"
     inkscape:window-height="1373"
     inkscape:window-x="0"
     inkscape:window-y="0"
     inkscape:window-maximized="1"
     inkscape:current-layer="layer1" />
  <defs
     id="defs2">
    <linearGradient
       id="linearGradient8830"
       inkscape:swatch="solid">
      <stop
         style="stop-color:#000000;stop-opacity:1;"
         offset="0"
         id="stop8828" />
    </linearGradient>
    <clipPath
       clipPathUnits="userSpaceOnUse"
       id="clipPath940">
      <rect
         style="fill:#ffffff;stroke-width:5.1;stroke-linejoin:bevel;stroke-miterlimit:4.1;stroke-dasharray:5.1, 30.6001"
         id="rect942"
         width="121.63074"
         height="189.99789"
         x="28.613729"
         y="54.186665" />
    </clipPath>
    <clipPath
       clipPathUnits="userSpaceOnUse"
       id="clipPath9289">
      <circle
         style="mix-blend-mode:multiply;fill:#4d4d4d;fill-opacity:1;stroke:none;stroke-width:5.1;stroke-linejoin:bevel;stroke-miterlimit:4.1;stroke-dasharray:none;stroke-dashoffset:0;stroke-opacity:1"
         id="circle9291"
         cx="102.61217"
         cy="165.64346"
         r="92" />
    </clipPath>
  </defs>
  <g
     inkscape:label="Layer 1"
     inkscape:groupmode="layer"
     id="layer1">
    <path
       style="fill:#000000;fill-opacity:1;stroke-width:0.264583"
       d="M -32.104605,146.15427 V 10.687603 H 103.36206 238.82872 V 144.0376 277.38759 h -10.58334 -10.58333 v 2.11667 2.11667 H 92.778725 -32.104605 Z M 84.72796,253.60919 c 0,0 6.884295,-2.35614 10.432015,-3.59759 6.136085,-2.14721 12.656125,-5.31688 16.007295,-7.78184 3.47585,-2.55668 6.57083,-5.93565 8.60086,-9.39008 0.51037,-0.86848 1.06532,-1.62484 1.23323,-1.68081 0.45886,-0.15295 1.31846,0.89178 2.55199,3.10164 1.272,2.27878 2.24313,4.50862 2.51023,5.76383 0.10171,0.47798 0.29285,0.87287 0.42475,0.87755 0.31717,0.0113 1.63729,-3.10834 2.14581,-5.07076 0.22197,-0.85663 0.57909,-2.78084 0.7936,-4.27604 0,0 0.44122,-3.90701 -0.0594,-6.0791 0,0 2.12459,0.3904 3.22323,0.49774 1.97556,0.18449 2.78607,0.94341 3.53785,1.73696 0.38107,0.61871 3.55632,4.01276 5.00659,5.7561 0.2974,0 -0.12658,-3.7014 -1.0456,-9.12812 -0.4436,-2.61938 -0.9657,-5.715 -1.16023,-6.87917 -0.19454,-1.16417 -0.71558,-3.84307 -1.15787,-5.95312 -1.0203,-4.86752 -2.24626,-11.49857 -2.78824,-15.08125 -0.23115,-1.52797 -0.58276,-3.61156 -0.78134,-4.63021 -0.19859,-1.01865 -0.44165,-2.73572 -0.54013,-3.81572 l -0.17905,-1.96363 0.88039,0.77663 c 0.48422,0.42715 1.60061,1.51915 2.48087,2.42666 2.04426,2.10753 2.35434,2.12595 2.16604,0.12866 -0.15612,-1.65596 -1.12988,-6.14835 -1.5628,-7.20989 -0.14836,-0.3638 -0.42503,-1.43537 -0.6148,-2.38125 -0.18978,-0.94589 -0.90468,-3.86292 -1.58868,-6.48229 -1.86591,-7.14554 -2.01274,-7.79614 -2.1692,-9.61189 l -0.14429,-1.6744 1.42121,0.71446 c 1.7182,0.86375 3.86919,2.64688 4.7462,3.9345 0.35407,0.51985 0.74374,0.94598 0.86595,0.94698 0.32925,0.003 -0.0608,-4.24488 -0.66805,-7.27424 -1.18592,-5.9165 -2.80854,-10.50451 -6.17589,-17.4625 -1.59016,-3.28576 -2.88309,-6.71678 -3.86029,-10.24397 -0.74432,-2.68657 -0.84046,-3.46299 -0.96105,-7.76151 -0.14437,-5.14596 -0.0877,-5.44728 1.3246,-7.04809 0.34545,-0.39156 0.85843,-1.03477 1.13996,-1.42936 0.28152,-0.3946 0.69046,-0.91156 0.90874,-1.14879 1.14643,-1.24599 2.56874,-3.41482 4.95643,-7.55786 2.42637,-4.21017 3.92304,-11.22814 3.27932,-15.376971 -0.8885,-5.726536 -3.01881,-9.710314 -6.36435,-11.901654 -2.14648,-1.40595 -5.44227,-0.906211 -6.15103,0.932678 -0.3832,0.99424 -0.68546,3.061491 -1.13494,7.762406 -0.41897,4.381714 -1.24269,8.164269 -2.40482,11.042921 -0.38186,0.94588 -0.81282,2.13651 -0.95769,2.64583 -0.14488,0.50932 -0.81821,1.78151 -1.4963,2.82708 -1.33935,2.06519 -2.80595,3.13245 -5.9985,4.36516 -2.00632,0.77468 -6.0522,0.82369 -9.26041,0.11217 -4.27213,-0.94748 -10.730626,-0.82921 -14.303676,0.27346 -5.932939,2.23778 -12.475535,3.75274 -17.85937,7.21767 -3.391519,2.2876 -6.757925,6.03778 -8.9088,9.34379 -0.79266,1.25535 -2.144639,5.25758 -2.38909,7.07234 l -0.16038,1.19063 1.0589,-1.32292 c 1.360856,-1.70017 4.892831,-4.90331 6.523681,-5.9366 2.86497,-1.81522 5.0412,-2.67897 7.66216,-3.04113 1.37405,-0.18986 1.58492,0.0663 0.88142,1.07068 -1.16792,1.66743 -4.12256,7.42493 -4.12256,8.03334 0,0.58701 4.42225,-0.63872 6.25987,-1.73507 0.45975,-0.2743 1.82897,-1.08346 3.04271,-1.79815 1.21373,-0.71468 3.42684,-2.10797 4.91801,-3.09621 1.49118,-0.98823 3.15805,-1.92919 3.70417,-2.09102 1.53394,-0.45454 4.08832,-0.6061 4.8989,-0.29065 l 0.73095,0.28447 -0.99553,1.33585 c -1.59091,2.13474 -1.92105,2.90872 -1.91756,4.49553 0.005,2.2553 0.15558,2.55658 1.43973,2.87993 0.89339,0.22496 1.45744,0.19695 2.68773,-0.13345 0.856385,-0.22998 2.262775,-0.58838 3.125305,-0.79643 0.86254,-0.20806 2.23175,-0.7257 3.04271,-1.15031 2.18879,-1.14605 4.42258,-2.08093 5.41857,-2.26778 0.79345,-0.14886 0.89947,-0.0949 1.05837,0.53813 0.10878,0.43346 0.0204,1.01657 -0.23014,1.51885 -0.22369,0.4484 -0.40671,0.84301 -0.40671,0.87691 0,0.0339 1.27992,0.14162 2.84427,0.23939 7.79654,0.48726 8.12726,0.52637 8.21195,0.97118 0.0557,0.29241 -0.65399,0.87336 -2.24628,1.83887 -2.1632,1.31169 -2.46786,1.41913 -4.31203,1.5206 -1.29667,0.0713 -2.17624,0.25931 -2.53802,0.54237 -6.38601,5.89399 -15.168709,4.76056 -21.297323,-0.39907 -0.157638,-0.11458 -0.764622,-1.50599 -0.766852,-3.07034 -0.003,-1.94614 -0.0991,-2.84427 -0.30493,-2.84427 -0.16548,0 -1.11627,0.53719 -2.11287,1.19375 -1.80086,1.18641 -2.96157,1.86638 -5.39005,3.15762 -0.69783,0.37104 -1.41126,0.79286 -1.58539,0.93738 -0.5237,0.43463 -3.33333,1.24757 -5.43662,1.57304 -3.69904,0.5724 -5.80477,1.98743 -6.9654,4.68067 -0.79136,1.83635 -0.816769,2.45985 -0.29791,2.74504 0,0 0.566826,0.26969 0.92041,0.32472 0.477236,0.0743 1.37443,0.002 1.37443,0.002 l 1.058821,-0.14414 c 0,0 3.730329,-0.96618 4.893349,-2.42375 l 0.71891,-0.90099 0.76606,1.3413 c 0.58699,1.02776 0.50679,1.55842 0.50679,1.55842 0,0 0.21556,2.12148 -0.311755,2.67187 -0.692134,0.57693 -1.833831,1.08221 -1.833831,1.08221 l -1.882964,0.99552 -0.716281,0.41222 c -0.316644,0.18224 -0.688249,0.29914 -0.985829,0.8746 -0.819913,1.73335 -0.238481,2.40837 -0.238481,2.40837 l 0.787485,1.00404 c 0.297889,0.30707 0.847023,1.09076 1.321386,1.46483 1.00644,0.7841 1.47043,0.97027 2.41832,0.97027 1.08494,0 1.31475,-0.13397 3.06355,-1.78594 1.03985,-0.98227 1.96361,-1.88426 2.05281,-2.00444 0.28265,-0.38079 2.32422,-0.53339 2.72178,-0.20345 1.15058,0.9549 0.48082,3.70275 -1.2996,5.33191 -0.54748,0.50098 -1.22038,1.12323 -1.49533,1.38276 -0.73524,0.69406 -2.27768,1.41403 -3.86189,1.80264 -1.58464,0.38871 -3.65087,0.0913 -5.67161,-0.81637 l -1.13511,-0.50987 -0.92604,0.9192 c -0.50932,0.50556 -1.15492,1.0795 -1.43465,1.27543 -0.57292,0.40128 -0.7211,0.0548 1.4097,3.29665 2.31916,3.52843 7.13413,4.47421 11.60161,2.27882 1.05565,-0.51876 2.62201,-1.59373 3.4808,-2.38882 l 1.56143,-1.44561 0.59358,0.96043 c 1.20537,1.95032 1.61759,2.22583 3.32308,2.22097 0.85643,-0.002 3.69792,-0.23301 6.31441,-0.51237 2.616495,-0.27936 4.798505,-0.46668 4.848925,-0.41626 0.0504,0.0504 -0.51115,0.92047 -1.24793,1.93345 -1.3363,1.83724 -2.411315,2.56115 -4.546215,3.06138 -1.50365,0.35232 -8.20719,1.19392 -10.84404,1.36141 -1.53928,0.0978 -2.94205,0.26639 -3.11727,0.37468 -0.19886,0.1229 -0.4664,1.82973 -0.7119,4.54171 -0.21632,2.38964 -0.62626,5.95215 -0.91097,7.91668 -0.9924,6.84775 -1.61411,10.72262 -1.88275,11.73452 -0.14878,0.5604 -0.21975,1.06965 -0.15772,1.13168 3.751224,-2.09768 5.31517,-7.11436 8.23267,-9.11299 l 0.94974,-0.56036 v 1.15693 c 0,0 -0.0011,1.36273 -0.14203,3.9846 -0.057,1.01864 -0.16773,3.87346 -0.24609,6.34403 -0.2006,6.32517 -0.64243,11.66303 -1.10646,13.36743 -1.12107,4.11778 -2.18337,6.89607 -4.19834,10.9802 -2.3893,4.84284 -3.48074,7.81654 -3.7298,10.16203 l -0.15711,1.47964 0.68183,-0.96779 c 2.799797,-3.32009 7.228673,-7.03136 10.63808,-8.43263 l 0.69393,-0.26383 -0.19153,1.65712 c -0.21367,1.84873 -1.14117,5.63859 -1.93579,7.90989 -1.604161,4.66173 -4.336201,9.13875 -6.63443,12.91695 -0.74645,1.23001 -1.65214,2.59242 -2.01264,3.02757 -2.217723,3.18243 4.258375,1.25259 4.258375,1.25259 z M 68.541305,156.91758 c 0.47571,-0.63693 0.55721,-1.11617 0.55721,-3.27653 0,-2.11834 -0.0752,-2.57819 -0.46147,-2.82348 -0.38291,-0.24313 -0.64786,-0.10661 -1.55654,0.80208 -1.26329,1.26328 -1.51853,2.54957 -0.87043,4.38648 0.70538,1.99925 1.33495,2.2454 2.33123,0.91145 z m 16.81674,-49.23625 c 0.93705,-0.24006 1.75991,-0.49266 1.82858,-0.56133 0.19277,-0.19278 -0.44089,-1.28298 -2.75746,-4.7441 -2.7105,-4.049681 -3.46302,-5.605137 -3.95454,-8.174106 -0.48034,-2.510502 -0.49998,-4.265467 -0.0853,-7.615909 0.39768,-3.212708 0.064,-5.061167 -1.11794,-6.193573 -0.68695,-0.658135 -0.98458,-0.752591 -2.33679,-0.74159 -2.39206,0.01947 -4.29157,1.130498 -6.27681,3.671342 -0.45207,0.578596 -1.01437,1.468713 -1.24955,1.978036 -1.14588,2.481611 -1.55077,6.875147 -0.93728,10.17053 0.35893,1.927942 1.54205,6.26028 1.81073,6.63051 0.10562,0.14552 0.70126,1.21708 1.32366,2.38125 0.6224,1.16417 1.50361,2.5631 1.95823,3.10874 2.50876,3.01103 2.63377,3.13183 3.05117,2.94856 3.105985,-0.89175 5.65263,-2.03681 8.7433,-2.85836 z"
       id="path944"
       sodipodi:nodetypes="ccccccccccccccsssssssscccccsssssscssssssscssccsssssssssssssssscccscsssssssssscscsssssssssssccccssssssssccscsccccsccccssssscsscssssscscssssssssscccccssssccccsccccsssssscssscsssssssscc"
       clip-path="url(#clipPath9289)"
       transform="translate(-7.1757518,-70.722781)" />
  </g>
</svg>
