<svg width="718" height="596" viewBox="0 0 718 596" fill="none" xmlns="http://www.w3.org/2000/svg">
<g clip-path="url(#clip0_1_2)">
<path d="M424.126 0H215.583C183.148 0 156.855 26.2936 156.855 58.7284V535.272C156.855 567.706 183.148 594 215.583 594H424.126C456.561 594 482.855 567.706 482.855 535.272V58.7284C482.855 26.2936 456.561 0 424.126 0Z" fill="#3F3D56"/>
<path d="M477.355 58.7323V535.272C477.339 549.385 471.725 562.915 461.746 572.894C451.767 582.873 438.238 588.486 424.125 588.502H215.585C201.473 588.486 187.943 582.873 177.964 572.894C167.985 562.915 162.372 549.385 162.355 535.272V58.7323C162.372 44.6199 167.985 31.0901 177.964 21.1111C187.943 11.1321 201.473 5.51866 215.585 5.50232H242.855V14.9223C242.855 19.1869 244.55 23.2768 247.565 26.2923C250.581 29.3079 254.671 31.0021 258.935 31.0023H380.775C385.04 31.0021 389.13 29.3079 392.145 26.2923C395.161 23.2768 396.855 19.1869 396.855 14.9223V5.50232H424.125C438.238 5.51866 451.767 11.1321 461.746 21.1111C471.725 31.0901 477.339 44.6199 477.355 58.7323Z" fill="white"/>
<path d="M155.355 120.5C154.294 120.499 153.278 120.077 152.528 119.327C151.778 118.577 151.356 117.56 151.355 116.5V108.5C151.355 107.439 151.776 106.422 152.526 105.672C153.276 104.921 154.294 104.5 155.355 104.5C156.416 104.5 157.433 104.921 158.183 105.672C158.933 106.422 159.355 107.439 159.355 108.5V116.5C159.354 117.56 158.932 118.577 158.182 119.327C157.432 120.077 156.415 120.499 155.355 120.5Z" fill="#3F3D56"/>
<path d="M155.355 161.521C154.294 161.52 153.278 161.098 152.528 160.349C151.778 159.599 151.356 158.582 151.355 157.521V135.5C151.355 134.439 151.776 133.422 152.526 132.672C153.276 131.921 154.294 131.5 155.355 131.5C156.416 131.5 157.433 131.921 158.183 132.672C158.933 133.422 159.355 134.439 159.355 135.5V157.521C159.354 158.582 158.932 159.599 158.182 160.349C157.432 161.098 156.415 161.52 155.355 161.521Z" fill="#3F3D56"/>
<path d="M155.355 194.5C154.294 194.499 153.278 194.077 152.528 193.327C151.778 192.577 151.356 191.56 151.355 190.5V168.479C151.355 167.418 151.776 166.4 152.526 165.65C153.276 164.9 154.294 164.479 155.355 164.479C156.416 164.479 157.433 164.9 158.183 165.65C158.933 166.4 159.355 167.418 159.355 168.479V190.5C159.354 191.56 158.932 192.577 158.182 193.327C157.432 194.077 156.415 194.499 155.355 194.5Z" fill="#3F3D56"/>
<path d="M483.355 176.5C482.294 176.499 481.278 176.077 480.528 175.327C479.778 174.577 479.356 173.56 479.355 172.5V118.767C479.355 117.706 479.776 116.688 480.526 115.938C481.276 115.188 482.294 114.767 483.355 114.767C484.416 114.767 485.433 115.188 486.183 115.938C486.933 116.688 487.355 117.706 487.355 118.767V172.5C487.354 173.56 486.932 174.577 486.182 175.327C485.432 176.077 484.415 176.499 483.355 176.5Z" fill="#3F3D56"/>
<path d="M328.447 18.3458H297.447C296.784 18.3458 296.148 18.0824 295.68 17.6136C295.211 17.1447 294.947 16.5088 294.947 15.8458C294.947 15.1828 295.211 14.5469 295.68 14.078C296.148 13.6092 296.784 13.3458 297.447 13.3458H328.447C329.11 13.3458 329.746 13.6092 330.215 14.078C330.684 14.5469 330.947 15.1828 330.947 15.8458C330.947 16.5088 330.684 17.1447 330.215 17.6136C329.746 18.0824 329.11 18.3458 328.447 18.3458Z" fill="white"/>
<path d="M344.447 17.8458C345.552 17.8458 346.447 16.9504 346.447 15.8458C346.447 14.7412 345.552 13.8458 344.447 13.8458C343.343 13.8458 342.447 14.7412 342.447 15.8458C342.447 16.9504 343.343 17.8458 344.447 17.8458Z" fill="white"/>
<path d="M230.941 29.0731H203.941C202.615 29.0731 201.343 28.5463 200.405 27.6086C199.467 26.6709 198.941 25.3991 198.941 24.0731C198.941 22.747 199.467 21.4752 200.405 20.5375C201.343 19.5998 202.615 19.0731 203.941 19.0731H230.941C232.267 19.0731 233.539 19.5998 234.476 20.5375C235.414 21.4752 235.941 22.747 235.941 24.0731C235.941 25.3991 235.414 26.6709 234.476 27.6086C233.539 28.5463 232.267 29.0731 230.941 29.0731Z" fill="#E6E6E6"/>
<path d="M333.355 238.695H306.355C305.029 238.695 303.757 238.168 302.82 237.231C301.882 236.293 301.355 235.021 301.355 233.695C301.355 232.369 301.882 231.097 302.82 230.16C303.757 229.222 305.029 228.695 306.355 228.695H333.355C334.681 228.695 335.953 229.222 336.891 230.16C337.828 231.097 338.355 232.369 338.355 233.695C338.355 235.021 337.828 236.293 336.891 237.231C335.953 238.168 334.681 238.695 333.355 238.695Z" fill="#E6E6E6"/>
<path d="M407.941 28.5731C410.426 28.5731 412.441 26.5583 412.441 24.0731C412.441 21.5878 410.426 19.5731 407.941 19.5731C405.455 19.5731 403.441 21.5878 403.441 24.0731C403.441 26.5583 405.455 28.5731 407.941 28.5731Z" fill="#E6E6E6"/>
<path d="M421.941 28.5731C424.426 28.5731 426.441 26.5583 426.441 24.0731C426.441 21.5878 424.426 19.5731 421.941 19.5731C419.455 19.5731 417.441 21.5878 417.441 24.0731C417.441 26.5583 419.455 28.5731 421.941 28.5731Z" fill="#E6E6E6"/>
<path d="M435.941 28.5731C438.426 28.5731 440.441 26.5583 440.441 24.0731C440.441 21.5878 438.426 19.5731 435.941 19.5731C433.455 19.5731 431.441 21.5878 431.441 24.0731C431.441 26.5583 433.455 28.5731 435.941 28.5731Z" fill="#E6E6E6"/>
<path d="M406.158 308.695H219.425C214.617 308.69 210.008 306.777 206.609 303.378C203.209 299.978 201.297 295.369 201.291 290.561V271.829C201.297 267.021 203.209 262.412 206.609 259.012C210.008 255.613 214.617 253.7 219.425 253.695H406.158C410.965 253.7 415.575 255.613 418.974 259.012C422.374 262.412 424.286 267.021 424.291 271.829V290.561C424.286 295.369 422.374 299.978 418.974 303.378C415.575 306.777 410.965 308.69 406.158 308.695ZM219.425 255.695C215.148 255.7 211.047 257.401 208.022 260.426C204.998 263.451 203.296 267.551 203.291 271.829V290.561C203.296 294.839 204.998 298.94 208.022 301.964C211.047 304.989 215.148 306.69 219.425 306.695H406.158C410.435 306.69 414.536 304.989 417.561 301.964C420.585 298.94 422.287 294.839 422.291 290.561V271.829C422.287 267.551 420.585 263.45 417.561 260.426C414.536 257.401 410.435 255.7 406.158 255.695H219.425Z" fill="#E6E6E6"/>
<path d="M333.355 377.695H306.355C305.029 377.695 303.757 377.168 302.82 376.231C301.882 375.293 301.355 374.021 301.355 372.695C301.355 371.369 301.882 370.097 302.82 369.16C303.757 368.222 305.029 367.695 306.355 367.695H333.355C334.681 367.695 335.953 368.222 336.891 369.16C337.828 370.097 338.355 371.369 338.355 372.695C338.355 374.021 337.828 375.293 336.891 376.231C335.953 377.168 334.681 377.695 333.355 377.695Z" fill="#E6E6E6"/>
<path d="M339.558 522.695H300.153C299.194 522.696 298.244 522.508 297.357 522.142C296.471 521.776 295.666 521.239 294.987 520.561C294.309 519.883 293.77 519.078 293.403 518.192C293.036 517.306 292.847 516.357 292.847 515.398C292.847 514.439 293.036 513.489 293.403 512.603C293.77 511.717 294.309 510.913 294.987 510.235C295.666 509.557 296.471 509.02 297.357 508.654C298.244 508.287 299.194 508.099 300.153 508.1H339.558C341.493 508.1 343.349 508.869 344.718 510.238C346.086 511.606 346.855 513.462 346.855 515.398C346.855 517.333 346.086 519.189 344.718 520.558C343.349 521.926 341.493 522.695 339.558 522.695Z" fill="#6C63FF"/>
<path d="M406.158 447.695H219.425C214.617 447.69 210.008 445.777 206.609 442.378C203.209 438.978 201.297 434.369 201.291 429.561V410.829C201.297 406.021 203.209 401.412 206.609 398.012C210.008 394.613 214.617 392.7 219.425 392.695H406.158C410.965 392.7 415.575 394.613 418.974 398.012C422.374 401.412 424.286 406.021 424.291 410.829V429.561C424.286 434.369 422.374 438.978 418.974 442.378C415.575 445.777 410.965 447.69 406.158 447.695ZM219.425 394.695C215.148 394.7 211.047 396.401 208.022 399.426C204.998 402.451 203.296 406.551 203.291 410.829V429.561C203.296 433.839 204.998 437.94 208.022 440.964C211.047 443.989 215.148 445.69 219.425 445.695H406.158C410.435 445.69 414.536 443.989 417.561 440.964C420.585 437.94 422.287 433.839 422.291 429.561V410.829C422.287 406.551 420.585 402.451 417.561 399.426C414.536 396.401 410.435 394.7 406.158 394.695H219.425Z" fill="#E6E6E6"/>
<path d="M440.44 193.5H198.94V195.5H440.44V193.5Z" fill="#E6E6E6"/>
<path d="M434.16 272.865C434.395 274.537 435.273 276.051 436.607 277.085C437.941 278.119 439.625 278.592 441.303 278.403C441.643 278.359 441.979 278.288 442.308 278.188L455.743 296.37L467.367 292.799L446.27 269.882C445.753 268.552 444.81 267.43 443.589 266.692C442.367 265.954 440.936 265.641 439.518 265.802C438.712 265.901 437.933 266.159 437.227 266.559C436.52 266.959 435.899 267.495 435.399 268.135C434.9 268.775 434.531 269.508 434.314 270.29C434.098 271.073 434.037 271.891 434.137 272.697C434.144 272.753 434.152 272.809 434.16 272.865Z" fill="#FFB6B6"/>
<path d="M603.221 400.518C602.021 399.331 601.332 397.722 601.3 396.034C601.267 394.347 601.895 392.713 603.049 391.481C603.287 391.234 603.546 391.008 603.822 390.803L597.27 369.166L607.08 361.979L612.85 392.59C613.607 393.799 613.944 395.225 613.805 396.646C613.667 398.066 613.063 399.401 612.086 400.442C611.525 401.029 610.854 401.499 610.11 401.827C609.367 402.154 608.567 402.332 607.755 402.35C606.943 402.368 606.135 402.226 605.378 401.932C604.621 401.638 603.929 401.198 603.343 400.637C603.302 400.598 603.261 400.558 603.221 400.518Z" fill="#FFB6B6"/>
<path d="M547.623 582.429L537.722 582.428L533.012 544.238L547.625 544.239L547.623 582.429Z" fill="#FFB6B6"/>
<path d="M547.971 592.758L517.524 592.757V592.372C517.525 589.229 518.773 586.215 520.996 583.992C523.218 581.77 526.232 580.521 529.375 580.521L534.937 576.302L545.314 580.522L547.972 580.522L547.971 592.758Z" fill="#2F2E41"/>
<path d="M590.623 582.429L580.722 582.428L576.012 544.238L590.625 544.239L590.623 582.429Z" fill="#FFB6B6"/>
<path d="M590.971 592.758L560.524 592.757V592.372C560.525 589.229 561.773 586.215 563.996 583.992C566.218 581.77 569.232 580.521 572.375 580.521L577.937 576.302L588.314 580.522L590.972 580.522L590.971 592.758Z" fill="#2F2E41"/>
<path d="M518.291 377.153C518.291 377.153 507.021 392.864 515.156 420.009C523.291 447.153 518.724 471.421 521.008 476.287C523.291 481.153 527.888 485.774 524.09 489.464C520.291 493.153 518.291 496.153 521.291 497.153C524.291 498.153 534.291 568.153 534.291 568.153L551.291 569.153C551.291 569.153 557.45 536.636 550.871 510.394C550.871 510.394 552.315 491.344 549.303 485.749C546.291 480.153 546.882 485.2 547.087 478.177C547.2 473.097 547.94 468.051 549.291 463.153C550.291 459.153 550.871 418.838 550.871 418.838L572.971 468.636C573.635 470.479 573.884 472.446 573.701 474.397C573.291 477.153 573.288 481.271 573.79 482.712C574.291 484.153 574.85 484.456 574.571 487.304C574.291 490.153 574.291 565.695 574.291 565.695H593.291L602.291 490.153C600.672 488.359 599.325 486.337 598.291 484.153C596.291 480.153 596.214 479.932 597.252 477.043C598.291 474.153 598.291 468.523 598.291 466.838C598.291 465.153 599.33 388.656 586.311 377.404C573.291 366.153 518.291 377.153 518.291 377.153Z" fill="#2F2E41"/>
<path d="M576.638 257.067L557.657 252.149L548.797 239.929L527.756 242.516L523.277 259.184L508.297 267.879C508.297 267.879 516.577 355.451 514.607 360.259C512.638 365.067 505.577 364.67 511.607 370.869C517.638 377.067 518.437 374.571 517.037 381.319C515.638 388.067 505.437 395.209 517.037 395.138C528.638 395.067 598.638 394.067 596.638 386.067C594.638 378.067 594.669 380.099 591.654 375.083C588.638 370.067 586.608 372.87 587.623 365.469C588.638 358.067 587.638 353.067 587.638 349.067C587.638 345.067 584.287 308.719 584.287 308.719L576.638 257.067Z" fill="#3F3D56"/>
<path d="M517.417 266.199C517.417 266.199 498.638 264.067 494.638 273.067C490.638 282.067 480.557 300.808 480.557 300.808C480.557 300.808 472.698 292.586 471.937 288.859C471.291 285.695 470.937 290.98 465.657 285.259C463.291 282.695 465.291 282.695 462.291 281.695L456.291 279.695L446.291 288.695C446.291 288.695 446.096 299.569 451.291 299.695C456.487 299.821 449.291 297.695 456.291 304.695C459.906 308.31 456.591 307.711 462.614 311.389C468.638 315.067 467.958 315.052 469.798 317.06C471.638 319.067 481.512 320.529 481.512 320.529L525.732 296.059L517.417 266.199Z" fill="#3F3D56"/>
<path d="M566.769 260.851C566.769 260.851 574.822 249.052 588.586 264.381C602.349 279.709 612.641 349.685 611.995 352.197C611.349 354.709 607.72 353.268 612.035 357.489C616.349 361.709 619.349 358.709 616.349 361.709C613.349 364.709 607.088 367.532 612.219 368.621C617.349 369.709 597.391 375.7 597.391 375.7C597.391 375.7 594.483 374.638 594.36 367.631C594.291 363.695 596.291 361.695 593.291 360.695C590.291 359.695 593.98 353.017 593.665 351.863C593.349 350.709 574.349 299.709 574.349 299.709L566.769 260.851Z" fill="#3F3D56"/>
<path d="M535.118 237.837C547.851 237.837 558.174 227.515 558.174 214.782C558.174 202.048 547.851 191.726 535.118 191.726C522.385 191.726 512.062 202.048 512.062 214.782C512.062 227.515 522.385 237.837 535.118 237.837Z" fill="#FFB6B6"/>
<path d="M550.291 232.695C544.841 228.435 552.291 209.695 543.291 213.695C543.291 213.695 532.291 206.695 530.081 211.295C527.522 216.621 518.421 214.205 512.831 212.325C513.271 211.304 513.583 210.232 513.761 209.135C512.729 209.948 511.636 210.68 510.491 211.325C509.724 210.915 509.044 210.358 508.491 209.685C507.946 209.061 507.605 208.284 507.514 207.46C507.423 206.636 507.586 205.804 507.981 205.075C508.911 203.645 510.831 203.205 511.961 201.935C512.092 201.757 512.177 201.549 512.21 201.33C512.243 201.111 512.222 200.888 512.149 200.679C512.014 200.168 511.994 199.634 512.09 199.114C512.185 198.594 512.394 198.102 512.701 197.672C513.009 197.242 513.407 196.886 513.868 196.627C514.329 196.369 514.842 196.216 515.369 196.178C515.581 196.185 515.791 196.139 515.981 196.045C516.93 195.464 517.806 194.773 518.591 193.985C517.277 194.049 515.96 194.012 514.651 193.875C514.381 193.845 514.111 193.815 513.841 193.775C514.341 192.602 515.089 191.55 516.033 190.692C516.977 189.834 518.096 189.191 519.311 188.805C521.878 188.029 524.55 187.655 527.231 187.695C528.781 187.645 530.331 187.595 531.871 187.545C535.138 187.313 538.419 187.427 541.661 187.885C545.125 188.517 548.406 189.906 551.27 191.953C554.134 193.999 556.512 196.653 558.231 199.725C561.621 205.875 565.291 225.695 550.291 232.695Z" fill="#2F2E41"/>
<path d="M491.458 341.259L372.608 383.28C369.67 384.315 366.44 384.142 363.629 382.799C360.818 381.457 358.654 379.054 357.612 376.118L337.195 318.371C336.16 315.433 336.333 312.204 337.675 309.392C339.018 306.581 341.421 304.417 344.357 303.375L463.207 261.355C466.145 260.319 469.375 260.492 472.186 261.835C474.997 263.177 477.161 265.58 478.203 268.517L498.62 326.263C499.655 329.201 499.482 332.43 498.14 335.242C496.797 338.053 494.394 340.217 491.458 341.259Z" fill="#6C63FF"/>
<path d="M365.191 316.783C357.313 321.966 347.217 318.065 343.686 312.383L344.249 312.063C350.955 307.882 360.915 310.211 365.191 316.783Z" fill="white"/>
<path d="M463.913 331.49C463.093 331.83 462.211 331.998 461.323 331.982C460.435 331.966 459.56 331.767 458.752 331.397C455.37 329.716 453.783 324.733 452.508 320.729C452.137 319.565 451.786 318.464 451.43 317.565L451.424 317.551C450.804 315.767 450.912 313.811 451.725 312.106C452.539 310.401 453.992 309.086 455.77 308.447L471.756 302.795C472.575 302.455 473.456 302.287 474.343 302.303C475.23 302.319 476.105 302.518 476.911 302.887C480.293 304.566 481.881 309.547 483.157 313.549C483.53 314.716 483.881 315.819 484.239 316.719C484.864 318.505 484.757 320.465 483.944 322.173C483.131 323.881 481.676 325.198 479.896 325.839L463.913 331.49Z" fill="white"/>
<path d="M365.954 347.392C365.669 347.505 365.358 347.538 365.056 347.488C364.753 347.438 364.47 347.306 364.237 347.107C363.964 346.868 363.757 346.563 363.636 346.221C363.515 345.88 363.484 345.512 363.546 345.155C363.604 344.847 363.746 344.562 363.956 344.33C364.166 344.098 364.436 343.929 364.736 343.841L370.82 341.69C371.109 341.571 371.425 341.533 371.734 341.582C372.043 341.63 372.332 341.763 372.57 341.966C372.843 342.204 373.05 342.509 373.171 342.851C373.292 343.193 373.322 343.56 373.26 343.918C373.201 344.224 373.059 344.509 372.849 344.741C372.639 344.972 372.37 345.141 372.07 345.229L365.986 347.381L365.954 347.392Z" fill="white"/>
<path d="M362.722 361.197C362.188 361.297 361.637 361.249 361.128 361.058C360.619 360.868 360.172 360.543 359.833 360.118C359.44 359.61 359.183 359.009 359.089 358.373C358.995 357.737 359.066 357.088 359.296 356.487C359.501 355.972 359.844 355.524 360.288 355.192C360.732 354.86 361.26 354.658 361.812 354.607L384.474 347.002C385.017 346.892 385.58 346.934 386.101 347.124C386.621 347.313 387.079 347.643 387.424 348.076C387.818 348.584 388.074 349.185 388.168 349.821C388.262 350.457 388.19 351.106 387.961 351.706C387.754 352.22 387.41 352.667 386.966 352.998C386.522 353.329 385.996 353.531 385.445 353.583L362.782 361.188L362.722 361.197Z" fill="white"/>
<path d="M482.649 281.087L342.043 330.799L342.281 331.471L482.886 281.758L482.649 281.087Z" fill="white"/>
<path d="M460.291 319.695C462.501 319.695 464.291 317.904 464.291 315.695C464.291 313.486 462.501 311.695 460.291 311.695C458.082 311.695 456.291 313.486 456.291 315.695C456.291 317.904 458.082 319.695 460.291 319.695Z" fill="#6C63FF"/>
<path d="M473.291 320.695C474.948 320.695 476.291 319.352 476.291 317.695C476.291 316.038 474.948 314.695 473.291 314.695C471.635 314.695 470.291 316.038 470.291 317.695C470.291 319.352 471.635 320.695 473.291 320.695Z" fill="#6C63FF"/>
<path d="M5.26701e-06 594.139C-0.000460802 594.296 0.0300089 594.451 0.0896507 594.595C0.149292 594.74 0.236938 594.871 0.347539 594.982C0.45814 595.092 0.589511 595.18 0.734106 595.24C0.8787 595.299 1.03366 595.33 1.19007 595.329H716.48C716.796 595.329 717.098 595.204 717.322 594.981C717.545 594.757 717.67 594.455 717.67 594.139C717.67 593.824 717.545 593.521 717.322 593.298C717.098 593.075 716.796 592.949 716.48 592.949H1.19001C1.03361 592.949 0.878661 592.979 0.734075 593.039C0.58949 593.099 0.458118 593.186 0.347524 593.297C0.236931 593.407 0.149291 593.539 0.0896507 593.683C0.0300107 593.828 -0.000455455 593.983 5.26701e-06 594.139Z" fill="#CCCCCC"/>
<path d="M248.654 568.353C248.079 568.379 247.51 568.228 247.024 567.921C246.537 567.613 246.157 567.163 245.935 566.632C245.713 566.1 245.66 565.514 245.782 564.951C245.905 564.389 246.197 563.878 246.62 563.487L246.812 562.722C246.787 562.661 246.761 562.6 246.736 562.539C246.156 561.17 245.186 560.004 243.946 559.185C242.705 558.367 241.251 557.933 239.765 557.939C238.279 557.944 236.828 558.389 235.594 559.216C234.36 560.044 233.398 561.218 232.829 562.59C230.554 568.068 227.659 573.556 226.946 579.348C226.632 581.908 226.764 584.504 227.337 587.019C221.995 575.365 219.221 562.699 219.203 549.88C219.202 546.663 219.381 543.449 219.738 540.252C220.034 537.631 220.444 535.029 220.969 532.445C223.832 518.427 229.98 505.288 238.907 494.108C243.228 491.75 246.722 488.125 248.919 483.72C249.715 482.137 250.277 480.447 250.589 478.703C250.101 478.766 248.751 471.343 249.119 470.888C248.439 469.857 247.224 469.345 246.482 468.339C242.792 463.337 237.709 464.21 235.056 471.008C229.387 473.869 229.332 478.614 232.81 483.177C235.023 486.08 235.327 490.009 237.269 493.117C237.069 493.373 236.862 493.62 236.662 493.876C233.01 498.572 229.828 503.614 227.16 508.93C227.808 502.974 227.034 496.949 224.9 491.351C222.737 486.134 218.684 481.74 215.114 477.23C210.826 471.812 202.034 474.176 201.278 481.044C201.271 481.11 201.264 481.177 201.257 481.243C201.787 481.543 202.306 481.86 202.814 482.196C203.452 482.622 203.946 483.231 204.232 483.943C204.518 484.655 204.582 485.437 204.416 486.186C204.25 486.935 203.862 487.617 203.302 488.141C202.742 488.666 202.037 489.009 201.279 489.126L201.201 489.138C201.39 491.049 201.724 492.943 202.2 494.803C197.62 512.513 207.507 518.963 221.624 519.253C221.936 519.413 222.239 519.573 222.551 519.725C219.87 527.321 218.189 535.234 217.549 543.264C217.187 548.001 217.208 552.761 217.613 557.495L217.589 557.327C216.566 552.063 213.758 547.313 209.639 543.879C203.52 538.853 194.877 537.003 188.276 532.963C187.575 532.512 186.759 532.272 185.925 532.27C185.092 532.268 184.275 532.504 183.571 532.951C182.868 533.398 182.306 534.037 181.954 534.792C181.601 535.548 181.472 536.388 181.582 537.215C181.591 537.273 181.6 537.332 181.609 537.391C182.593 537.792 183.551 538.253 184.477 538.773C185.008 539.073 185.527 539.39 186.034 539.726C186.672 540.152 187.167 540.761 187.453 541.473C187.739 542.185 187.803 542.967 187.637 543.716C187.471 544.465 187.082 545.146 186.523 545.671C185.963 546.196 185.257 546.539 184.499 546.656L184.421 546.668C184.365 546.676 184.317 546.684 184.262 546.692C185.943 550.706 188.302 554.401 191.237 557.614C194.1 573.075 206.399 574.541 219.555 570.039H219.563C221.006 576.312 223.097 582.417 225.803 588.257H248.096C248.176 588.009 248.248 587.754 248.32 587.506C246.256 587.636 244.185 587.512 242.151 587.139C243.805 585.109 245.459 583.063 247.113 581.034C247.15 580.996 247.185 580.956 247.217 580.914C248.056 579.875 248.903 578.845 249.742 577.806L249.742 577.805C249.787 574.621 249.421 571.444 248.654 568.353Z" fill="#F2F2F2"/>
<path d="M207.409 128H195.034V93.0909H207.511C211.023 93.0909 214.045 93.7898 216.58 95.1875C219.114 96.5739 221.063 98.5682 222.426 101.17C223.801 103.773 224.489 106.886 224.489 110.511C224.489 114.148 223.801 117.273 222.426 119.886C221.063 122.5 219.102 124.506 216.545 125.903C214 127.301 210.955 128 207.409 128ZM202.415 121.676H207.102C209.284 121.676 211.119 121.29 212.608 120.517C214.108 119.733 215.233 118.523 215.983 116.886C216.744 115.239 217.125 113.114 217.125 110.511C217.125 107.932 216.744 105.824 215.983 104.188C215.233 102.551 214.114 101.347 212.625 100.574C211.136 99.8011 209.301 99.4148 207.119 99.4148H202.415V121.676ZM241.751 128.511C239.058 128.511 236.74 127.966 234.797 126.875C232.865 125.773 231.376 124.216 230.331 122.205C229.286 120.182 228.763 117.79 228.763 115.028C228.763 112.335 229.286 109.972 230.331 107.938C231.376 105.903 232.848 104.318 234.746 103.182C236.655 102.045 238.893 101.477 241.462 101.477C243.189 101.477 244.797 101.756 246.286 102.312C247.786 102.858 249.092 103.682 250.206 104.784C251.331 105.886 252.206 107.273 252.831 108.943C253.456 110.602 253.768 112.545 253.768 114.773V116.767H231.661V112.267H246.933C246.933 111.222 246.706 110.295 246.251 109.489C245.797 108.682 245.166 108.051 244.359 107.597C243.564 107.131 242.638 106.898 241.581 106.898C240.479 106.898 239.501 107.153 238.649 107.665C237.808 108.165 237.149 108.841 236.672 109.693C236.195 110.534 235.95 111.472 235.939 112.506V116.784C235.939 118.08 236.178 119.199 236.655 120.142C237.143 121.085 237.831 121.812 238.717 122.324C239.604 122.835 240.655 123.091 241.871 123.091C242.678 123.091 243.416 122.977 244.087 122.75C244.757 122.523 245.331 122.182 245.808 121.727C246.286 121.273 246.649 120.716 246.899 120.057L253.615 120.5C253.274 122.114 252.575 123.523 251.518 124.727C250.473 125.92 249.121 126.852 247.462 127.523C245.814 128.182 243.911 128.511 241.751 128.511ZM258.643 128V93.0909H265.905V106.216H266.126C266.445 105.511 266.905 104.795 267.507 104.068C268.121 103.33 268.916 102.716 269.893 102.227C270.882 101.727 272.109 101.477 273.575 101.477C275.484 101.477 277.246 101.977 278.859 102.977C280.473 103.966 281.763 105.46 282.729 107.46C283.695 109.449 284.178 111.943 284.178 114.943C284.178 117.864 283.706 120.33 282.763 122.341C281.831 124.341 280.558 125.858 278.945 126.892C277.342 127.915 275.547 128.426 273.558 128.426C272.149 128.426 270.95 128.193 269.962 127.727C268.984 127.261 268.183 126.676 267.558 125.972C266.933 125.256 266.456 124.534 266.126 123.807H265.803V128H258.643ZM265.751 114.909C265.751 116.466 265.967 117.824 266.399 118.983C266.831 120.142 267.456 121.045 268.274 121.693C269.092 122.33 270.087 122.648 271.257 122.648C272.439 122.648 273.439 122.324 274.257 121.676C275.075 121.017 275.695 120.108 276.115 118.949C276.547 117.778 276.763 116.432 276.763 114.909C276.763 113.398 276.553 112.068 276.132 110.92C275.712 109.773 275.092 108.875 274.274 108.227C273.456 107.58 272.45 107.256 271.257 107.256C270.075 107.256 269.075 107.568 268.257 108.193C267.45 108.818 266.831 109.705 266.399 110.852C265.967 112 265.751 113.352 265.751 114.909ZM289.023 128V101.818H296.284V128H289.023ZM292.67 98.4432C291.591 98.4432 290.665 98.0852 289.892 97.3693C289.131 96.642 288.75 95.7727 288.75 94.7614C288.75 93.7614 289.131 92.9034 289.892 92.1875C290.665 91.4602 291.591 91.0966 292.67 91.0966C293.75 91.0966 294.67 91.4602 295.432 92.1875C296.205 92.9034 296.591 93.7614 296.591 94.7614C296.591 95.7727 296.205 96.642 295.432 97.3693C294.67 98.0852 293.75 98.4432 292.67 98.4432ZM316.027 101.818V107.273H300.26V101.818H316.027ZM303.839 95.5455H311.101V119.955C311.101 120.625 311.203 121.148 311.408 121.523C311.612 121.886 311.896 122.142 312.26 122.29C312.635 122.437 313.067 122.511 313.555 122.511C313.896 122.511 314.237 122.483 314.578 122.426C314.919 122.358 315.18 122.307 315.362 122.273L316.504 127.676C316.141 127.79 315.629 127.92 314.97 128.068C314.311 128.227 313.51 128.324 312.567 128.358C310.817 128.426 309.283 128.193 307.964 127.659C306.658 127.125 305.641 126.295 304.913 125.17C304.186 124.045 303.828 122.625 303.839 120.909V95.5455Z" fill="black"/>
<path d="M320.893 128V93.0909H328.274V121.915H343.24V128H320.893ZM355.253 93.0909V128H347.991V93.0909H355.253ZM368.536 128.494C366.865 128.494 365.376 128.205 364.07 127.625C362.763 127.034 361.729 126.165 360.967 125.017C360.217 123.858 359.842 122.415 359.842 120.688C359.842 119.233 360.109 118.011 360.643 117.023C361.178 116.034 361.905 115.239 362.825 114.636C363.746 114.034 364.791 113.58 365.962 113.273C367.143 112.966 368.382 112.75 369.678 112.625C371.2 112.466 372.428 112.318 373.359 112.182C374.291 112.034 374.967 111.818 375.388 111.534C375.808 111.25 376.018 110.83 376.018 110.273V110.17C376.018 109.091 375.678 108.256 374.996 107.665C374.325 107.074 373.371 106.778 372.132 106.778C370.825 106.778 369.786 107.068 369.013 107.648C368.24 108.216 367.729 108.932 367.479 109.795L360.763 109.25C361.104 107.659 361.774 106.284 362.774 105.125C363.774 103.955 365.064 103.057 366.643 102.432C368.234 101.795 370.075 101.477 372.166 101.477C373.621 101.477 375.013 101.648 376.342 101.989C377.683 102.33 378.871 102.858 379.905 103.574C380.95 104.29 381.774 105.21 382.376 106.335C382.979 107.449 383.28 108.784 383.28 110.341V128H376.393V124.369H376.189C375.768 125.188 375.206 125.909 374.501 126.534C373.797 127.148 372.95 127.631 371.962 127.983C370.973 128.324 369.831 128.494 368.536 128.494ZM370.615 123.483C371.683 123.483 372.626 123.273 373.445 122.852C374.263 122.42 374.905 121.841 375.371 121.114C375.837 120.386 376.07 119.562 376.07 118.642V115.864C375.842 116.011 375.53 116.148 375.132 116.273C374.746 116.386 374.308 116.494 373.82 116.597C373.331 116.687 372.842 116.773 372.354 116.852C371.865 116.92 371.422 116.983 371.024 117.04C370.172 117.165 369.428 117.364 368.791 117.636C368.155 117.909 367.661 118.278 367.308 118.744C366.956 119.199 366.78 119.767 366.78 120.449C366.78 121.438 367.138 122.193 367.854 122.716C368.581 123.227 369.501 123.483 370.615 123.483ZM388.913 128V101.818H395.834V106.438H396.141C396.686 104.903 397.595 103.693 398.868 102.807C400.141 101.92 401.663 101.477 403.436 101.477C405.232 101.477 406.76 101.926 408.021 102.824C409.283 103.71 410.124 104.915 410.544 106.438H410.817C411.351 104.938 412.317 103.739 413.714 102.841C415.124 101.932 416.788 101.477 418.709 101.477C421.152 101.477 423.135 102.256 424.658 103.812C426.192 105.358 426.959 107.551 426.959 110.392V128H419.714V111.824C419.714 110.369 419.328 109.278 418.555 108.551C417.783 107.824 416.817 107.46 415.658 107.46C414.339 107.46 413.311 107.881 412.572 108.722C411.834 109.551 411.464 110.648 411.464 112.011V128H404.425V111.67C404.425 110.386 404.055 109.364 403.317 108.602C402.589 107.841 401.629 107.46 400.436 107.46C399.629 107.46 398.902 107.665 398.254 108.074C397.618 108.472 397.112 109.034 396.737 109.761C396.362 110.477 396.175 111.318 396.175 112.284V128H388.913ZM440.161 128.494C438.49 128.494 437.001 128.205 435.695 127.625C434.388 127.034 433.354 126.165 432.592 125.017C431.842 123.858 431.467 122.415 431.467 120.688C431.467 119.233 431.734 118.011 432.268 117.023C432.803 116.034 433.53 115.239 434.45 114.636C435.371 114.034 436.416 113.58 437.587 113.273C438.768 112.966 440.007 112.75 441.303 112.625C442.825 112.466 444.053 112.318 444.984 112.182C445.916 112.034 446.592 111.818 447.013 111.534C447.433 111.25 447.643 110.83 447.643 110.273V110.17C447.643 109.091 447.303 108.256 446.621 107.665C445.95 107.074 444.996 106.778 443.757 106.778C442.45 106.778 441.411 107.068 440.638 107.648C439.865 108.216 439.354 108.932 439.104 109.795L432.388 109.25C432.729 107.659 433.399 106.284 434.399 105.125C435.399 103.955 436.689 103.057 438.268 102.432C439.859 101.795 441.7 101.477 443.791 101.477C445.246 101.477 446.638 101.648 447.967 101.989C449.308 102.33 450.496 102.858 451.53 103.574C452.575 104.29 453.399 105.21 454.001 106.335C454.604 107.449 454.905 108.784 454.905 110.341V128H448.018V124.369H447.814C447.393 125.188 446.831 125.909 446.126 126.534C445.422 127.148 444.575 127.631 443.587 127.983C442.598 128.324 441.456 128.494 440.161 128.494ZM442.24 123.483C443.308 123.483 444.251 123.273 445.07 122.852C445.888 122.42 446.53 121.841 446.996 121.114C447.462 120.386 447.695 119.562 447.695 118.642V115.864C447.467 116.011 447.155 116.148 446.757 116.273C446.371 116.386 445.933 116.494 445.445 116.597C444.956 116.687 444.467 116.773 443.979 116.852C443.49 116.92 443.047 116.983 442.649 117.04C441.797 117.165 441.053 117.364 440.416 117.636C439.78 117.909 439.286 118.278 438.933 118.744C438.581 119.199 438.405 119.767 438.405 120.449C438.405 121.438 438.763 122.193 439.479 122.716C440.206 123.227 441.126 123.483 442.24 123.483Z" fill="#575757"/>
<path d="M467 344C480.807 344 492 332.807 492 319C492 305.193 480.807 294 467 294C453.193 294 442 305.193 442 319C442 332.807 453.193 344 467 344Z" fill="white"/>
<mask id="mask0_1_2" style="mask-type:luminance" maskUnits="userSpaceOnUse" x="442" y="294" width="50" height="50">
<path d="M467 344C480.807 344 492 332.807 492 319C492 305.193 480.807 294 467 294C453.193 294 442 305.193 442 319C442 332.807 453.193 344 467 344Z" fill="white"/>
</mask>
<g mask="url(#mask0_1_2)">
<path d="M416.997 321.358V271.581H466.774H516.552V320.58V369.58H512.663H508.774V370.357V371.135H462.885H416.997V321.358ZM459.927 360.842C459.927 360.842 462.457 359.977 463.76 359.52C466.015 358.731 468.411 357.567 469.642 356.661C470.92 355.722 472.057 354.48 472.803 353.211C472.99 352.891 473.194 352.614 473.256 352.593C473.424 352.537 473.74 352.921 474.194 353.733C474.661 354.57 475.018 355.389 475.116 355.851C475.153 356.026 475.224 356.171 475.272 356.173C475.389 356.177 475.874 355.031 476.061 354.31C476.142 353.995 476.273 353.288 476.352 352.739C476.352 352.739 476.514 351.303 476.33 350.505C476.33 350.505 477.111 350.648 477.515 350.688C478.241 350.755 478.538 351.034 478.815 351.326C478.955 351.553 480.121 352.8 480.654 353.441C480.764 353.441 480.608 352.081 480.27 350.087C480.107 349.124 479.915 347.987 479.844 347.559C479.772 347.131 479.581 346.147 479.418 345.372C479.043 343.583 478.593 341.147 478.394 339.83C478.309 339.269 478.18 338.503 478.107 338.129C478.034 337.754 477.944 337.123 477.908 336.727L477.842 336.005L478.166 336.29C478.344 336.447 478.754 336.849 479.078 337.182C479.829 337.957 479.943 337.963 479.873 337.229C479.816 336.621 479.458 334.97 479.299 334.58C479.245 334.446 479.143 334.053 479.073 333.705C479.004 333.358 478.741 332.286 478.49 331.323C477.804 328.698 477.75 328.459 477.692 327.791L477.639 327.176L478.162 327.439C478.793 327.756 479.583 328.411 479.906 328.884C480.036 329.075 480.179 329.232 480.224 329.232C480.345 329.233 480.202 327.673 479.978 326.559C479.543 324.385 478.946 322.699 477.709 320.143C477.125 318.935 476.65 317.675 476.291 316.379C476.017 315.391 475.982 315.106 475.937 313.527C475.884 311.636 475.905 311.525 476.424 310.937C476.551 310.793 476.74 310.557 476.843 310.412C476.946 310.267 477.097 310.077 477.177 309.99C477.598 309.532 478.121 308.735 478.998 307.212C479.89 305.665 480.44 303.087 480.203 301.562C479.877 299.458 479.094 297.994 477.865 297.189C477.076 296.672 475.865 296.856 475.604 297.532C475.464 297.897 475.353 298.657 475.187 300.384C475.033 301.994 474.731 303.384 474.304 304.442C474.163 304.789 474.005 305.227 473.952 305.414C473.899 305.601 473.651 306.068 473.402 306.453C472.91 307.211 472.371 307.604 471.198 308.057C470.461 308.341 468.974 308.359 467.795 308.098C466.225 307.75 463.852 307.793 462.539 308.198C460.359 309.021 457.955 309.577 455.977 310.85C454.731 311.691 453.494 313.069 452.703 314.284C452.412 314.745 451.915 316.216 451.825 316.883L451.766 317.32L452.156 316.834C452.656 316.209 453.953 315.032 454.553 314.653C455.605 313.985 456.405 313.668 457.368 313.535C457.873 313.465 457.951 313.559 457.692 313.928C457.263 314.541 456.177 316.657 456.177 316.88C456.177 317.096 457.802 316.646 458.477 316.243C458.646 316.142 459.149 315.845 459.595 315.582C460.041 315.319 460.855 314.807 461.403 314.444C461.95 314.081 462.563 313.735 462.764 313.676C463.327 313.509 464.266 313.453 464.564 313.569L464.832 313.674L464.467 314.165C463.882 314.949 463.761 315.233 463.762 315.816C463.764 316.645 463.819 316.756 464.291 316.875C464.619 316.957 464.826 316.947 465.279 316.826C465.593 316.741 466.11 316.609 466.427 316.533C466.744 316.457 467.247 316.266 467.545 316.11C468.349 315.689 469.17 315.346 469.536 315.277C469.828 315.222 469.867 315.242 469.925 315.475C469.965 315.634 469.932 315.848 469.84 316.033C469.758 316.198 469.691 316.343 469.691 316.355C469.691 316.368 470.161 316.407 470.736 316.443C473.601 316.622 473.722 316.636 473.754 316.8C473.774 316.907 473.513 317.121 472.928 317.476C472.133 317.958 472.021 317.997 471.344 318.034C470.867 318.061 470.544 318.13 470.411 318.234C468.065 320.399 464.837 319.983 462.585 318.087C462.527 318.045 462.304 317.534 462.304 316.959C462.303 316.244 462.267 315.914 462.192 315.914C462.131 315.914 461.781 316.111 461.415 316.352C460.753 316.788 460.327 317.038 459.435 317.513C459.178 317.649 458.916 317.804 458.852 317.857C458.66 318.017 457.627 318.315 456.854 318.435C455.495 318.645 454.721 319.165 454.295 320.155C454.004 320.83 453.995 321.059 454.185 321.164C454.185 321.164 454.394 321.263 454.524 321.283C454.699 321.31 455.029 321.284 455.029 321.284L455.418 321.231C455.418 321.231 456.788 320.876 457.216 320.34L457.48 320.009L457.762 320.502C457.977 320.88 457.948 321.075 457.948 321.075C457.948 321.075 458.027 321.854 457.833 322.056C457.579 322.268 457.159 322.454 457.159 322.454L456.467 322.82L456.204 322.971C456.088 323.038 455.951 323.081 455.842 323.293C455.541 323.93 455.754 324.178 455.754 324.178L456.044 324.546C456.153 324.659 456.355 324.947 456.529 325.085C456.899 325.373 457.07 325.441 457.418 325.441C457.817 325.441 457.901 325.392 458.544 324.785C458.926 324.424 459.265 324.093 459.298 324.048C459.402 323.909 460.152 323.853 460.298 323.974C460.721 324.325 460.475 325.334 459.82 325.933C459.619 326.117 459.372 326.346 459.271 326.441C459.001 326.696 458.434 326.961 457.852 327.103C457.27 327.246 456.51 327.137 455.768 326.803L455.351 326.616L455.011 326.954C454.823 327.14 454.586 327.351 454.483 327.423C454.273 327.57 454.218 327.443 455.001 328.634C455.854 329.93 457.623 330.278 459.264 329.471C459.652 329.281 460.228 328.886 460.543 328.593L461.117 328.062L461.335 328.415C461.778 329.132 461.93 329.233 462.556 329.231C462.871 329.231 463.915 329.146 464.877 329.043C465.838 328.94 466.64 328.872 466.658 328.89C466.677 328.909 466.47 329.228 466.2 329.6C465.709 330.276 465.314 330.542 464.529 330.725C463.977 330.855 461.514 331.164 460.545 331.226C459.979 331.262 459.464 331.324 459.399 331.363C459.326 331.408 459.228 332.036 459.138 333.032C459.058 333.91 458.907 335.219 458.803 335.941C458.438 338.457 458.21 339.881 458.111 340.253C458.056 340.459 458.03 340.646 458.053 340.669C459.431 339.898 460.006 338.055 461.078 337.32L461.427 337.114V337.539C461.427 337.539 461.427 338.04 461.375 339.004C461.354 339.378 461.313 340.427 461.285 341.335C461.211 343.659 461.048 345.62 460.878 346.247C460.466 347.76 460.076 348.781 459.335 350.281C458.457 352.061 458.056 353.153 457.965 354.015L457.907 354.559L458.158 354.203C459.186 352.983 460.814 351.62 462.067 351.105L462.322 351.008L462.251 351.617C462.173 352.296 461.832 353.689 461.54 354.523C460.95 356.236 459.946 357.881 459.102 359.27C458.828 359.722 458.495 360.222 458.362 360.382C457.548 361.551 459.927 360.842 459.927 360.842ZM453.979 325.313C454.154 325.079 454.184 324.903 454.184 324.109C454.184 323.331 454.157 323.162 454.015 323.072C453.874 322.982 453.777 323.032 453.443 323.366C452.978 323.83 452.885 324.303 453.123 324.978C453.382 325.713 453.613 325.803 453.979 325.313ZM460.159 307.221C460.503 307.133 460.805 307.04 460.831 307.015C460.901 306.944 460.669 306.543 459.817 305.272C458.821 303.784 458.545 303.212 458.364 302.268C458.188 301.346 458.181 300.701 458.333 299.47C458.479 298.289 458.356 297.61 457.922 297.194C457.67 296.952 457.56 296.917 457.064 296.921C456.185 296.928 455.487 297.337 454.757 298.27C454.591 298.483 454.384 298.81 454.298 298.997C453.877 299.909 453.728 301.523 453.954 302.734C454.085 303.443 454.52 305.035 454.619 305.171C454.658 305.224 454.877 305.618 455.105 306.046C455.334 306.473 455.658 306.988 455.825 307.188C456.747 308.294 456.793 308.339 456.946 308.271C458.087 307.944 459.023 307.523 460.159 307.221Z" fill="black"/>
</g>
</g>
<defs>
<clipPath id="clip0_1_2">
<rect width="717.67" height="595.329" fill="white"/>
</clipPath>
</defs>
</svg>
