<?xml version="1.0" encoding="UTF-8" standalone="no"?>
<svg
   height="24"
   viewBox="0 -960 960 960"
   width="24"
   version="1.1"
   id="svg1056"
   sodipodi:docname="send_money_FILL0_wght400_GRAD0_opsz24.svg"
   inkscape:version="1.1.2 (0a00cf5339, 2022-02-04)"
   xmlns:inkscape="http://www.inkscape.org/namespaces/inkscape"
   xmlns:sodipodi="http://sodipodi.sourceforge.net/DTD/sodipodi-0.dtd"
   xmlns="http://www.w3.org/2000/svg"
   xmlns:svg="http://www.w3.org/2000/svg">
  <defs
     id="defs1060" />
  <sodipodi:namedview
     id="namedview1058"
     pagecolor="#ffffff"
     bordercolor="#666666"
     borderopacity="1.0"
     inkscape:pageshadow="2"
     inkscape:pageopacity="0.0"
     inkscape:pagecheckerboard="0"
     showgrid="false"
     inkscape:zoom="40.96"
     inkscape:cx="19.689942"
     inkscape:cy="26.025391"
     inkscape:window-width="3440"
     inkscape:window-height="1373"
     inkscape:window-x="0"
     inkscape:window-y="0"
     inkscape:window-maximized="1"
     inkscape:current-layer="svg1056" />
  <path
     d="M240-170Q136-197 68-282T0-480q0-113 68-198t172-112v84q-71 24-115.5 86T80-480q0 78 44.5 140T240-254v84Zm320 10q-133 0-226.5-93.5T240-480q0-133 93.5-226.5T560-800q66 0 124 25t102 69l-56 56q-33-33-76.5-51.5T560-720q-100 0-170 70t-70 170q0 100 70 170t170 70q50 0 93.5-18.5T730-310l56 56q-44 44-102 69t-124 25Zm240-160-56-56 64-64H520v-80h288l-64-64 56-56 160 160-160 160Z"
     id="path1054"
     style="fill:#ffffff" />
</svg>
